<?xml version="1.0" encoding="UTF-8" standalone="no"?><!DOCTYPE svg PUBLIC "-//W3C//DTD SVG 1.1//EN" "http://www.w3.org/Graphics/SVG/1.1/DTD/svg11.dtd"><svg width="100%" height="100%" viewBox="0 0 2134 2134" version="1.1" xmlns="http://www.w3.org/2000/svg" xmlns:xlink="http://www.w3.org/1999/xlink" xml:space="preserve" xmlns:serif="http://www.serif.com/" style="fill-rule:evenodd;clip-rule:evenodd;stroke-linejoin:round;stroke-miterlimit:2;"><path d="M897.594,288.449c32.803,353.669 65.605,707.338 98.408,1061.01c208.765,-353.669 417.53,-707.338 626.295,-1061.01c170.345,0 340.691,0 511.036,0c-130.023,518.812 -260.045,1037.62 -390.068,1556.43c-128.356,0 -256.712,0 -385.067,0c80.357,-320.638 160.714,-641.276 241.071,-961.914c-193.128,318.88 -386.256,637.76 -579.385,956.639c-98.538,0 -197.076,0 -295.615,0c-33.307,-318.879 -66.613,-637.759 -99.92,-956.639c-80.357,320.638 -160.714,641.276 -241.072,961.914c-127.759,0 -255.518,0 -383.277,0c130.023,-518.812 260.046,-1037.62 390.069,-1556.43c169.175,0 338.35,0 507.525,0Z"/></svg>