<?xml version="1.0" encoding="UTF-8" standalone="no"?><!DOCTYPE svg PUBLIC "-//W3C//DTD SVG 1.1//EN" "http://www.w3.org/Graphics/SVG/1.1/DTD/svg11.dtd"><svg width="100%" height="100%" viewBox="0 0 2134 2134" version="1.1" xmlns="http://www.w3.org/2000/svg" xmlns:xlink="http://www.w3.org/1999/xlink" xml:space="preserve" xmlns:serif="http://www.serif.com/" style="fill-rule:evenodd;clip-rule:evenodd;stroke-linejoin:round;stroke-miterlimit:2;"><path id="icon" d="M982.131,677.558c16.401,176.834 32.802,353.669 49.203,530.503c104.383,-176.834 208.765,-353.669 313.148,-530.503c85.173,-0 170.345,-0 255.518,-0c-65.011,259.406 -130.023,518.812 -195.034,778.217c-64.178,0 -128.356,0 -192.534,0c40.179,-160.319 80.357,-320.638 120.536,-480.956c-96.564,159.439 -193.128,318.879 -289.693,478.319c-49.269,-0 -98.538,-0 -147.807,-0c-16.653,-159.44 -33.307,-318.88 -49.96,-478.319c-40.179,160.318 -80.357,320.637 -120.536,480.956c-63.88,0 -127.759,0 -191.639,0c65.012,-259.405 130.023,-518.811 195.035,-778.217c84.587,-0 169.175,-0 253.763,-0Z"/></svg>